<svg width="55" height="55" viewBox="0 0 55 55" fill="none" xmlns="http://www.w3.org/2000/svg">
<path d="M55 27.5C55 42.6878 42.6878 55 27.5 55C12.3122 55 0 42.6878 0 27.5C0 12.3122 12.3122 0 27.5 0C42.6878 0 55 12.3122 55 27.5Z" fill="white"/>
<path d="M15.6178 46.9423C16.2129 45.768 16.4416 44.5685 16.5422 43.338C16.5203 43.3309 16.4981 43.3238 16.4762 43.317C16.4487 43.3842 16.4188 43.4507 16.3943 43.519C16.1393 44.2316 15.8961 44.9489 15.6246 45.6553C15.527 45.9093 15.3693 46.1424 15.2244 46.3758C15.1002 46.5761 14.9555 46.7636 14.81 46.9706C14.4219 46.9854 14.022 47.0233 13.6227 46.9346C13.415 46.8884 13.2861 46.682 13.3813 46.485C13.4215 46.4018 13.4301 46.3604 13.3887 46.2782C13.3612 46.2235 13.3775 46.1265 13.4085 46.0661C13.6236 45.6476 13.7555 45.2024 13.8643 44.7475C13.9983 44.1872 14.1465 43.6306 14.2758 43.0691C14.3349 42.8127 14.3666 42.5497 14.4045 42.2888C14.4749 41.8034 14.5553 41.3186 14.6053 40.8309C14.6884 40.0219 14.7644 39.2117 14.7671 38.3968C14.7695 37.6913 14.786 36.9858 14.7763 36.2807C14.7706 35.868 14.7245 35.4563 14.6979 35.044C14.6884 34.8969 14.6911 34.7488 14.6748 34.6026C14.6485 34.3675 14.6018 34.3228 14.3722 34.274C14.353 34.2699 14.3338 34.266 14.3142 34.2622C14.1746 34.2332 13.9838 34.34 13.9001 34.1944C13.7948 34.0113 13.7383 33.7963 13.6848 33.5887C13.5538 33.0808 13.4363 32.5694 13.2813 32.0632C13.2355 32.7776 13.2813 33.4869 13.3266 34.2211H11.4246C11.2693 33.9614 11.3037 33.6735 11.2827 33.3964C11.2776 33.3316 11.2806 33.2662 11.2729 33.2018C11.2602 33.0979 11.2318 32.9953 11.2279 32.8915C11.2211 32.6995 11.1702 32.5149 11.1487 32.3262C11.1288 32.152 11.1389 31.9748 11.1333 31.7988C11.1309 31.7213 11.1392 31.6376 11.1129 31.5678C11.0688 31.4515 10.9679 31.351 11.0987 31.2217C11.1182 31.2025 11.0431 31.1061 11.0439 31.046C11.0469 30.8372 11.0635 30.6284 11.0759 30.4198C11.0788 30.3713 11.0913 30.3225 11.0889 30.2743C11.0783 30.0471 10.9176 29.8276 11.0558 29.5931C10.9416 29.2665 11.0614 28.9385 11.0576 28.611C11.0549 28.3765 11.075 28.1413 11.0475 27.9062C11.0425 27.8627 11.049 27.8038 11.0753 27.7731C11.1643 27.668 11.1691 27.5728 11.0954 27.4551C11.0712 27.4166 11.1034 27.3421 11.1117 27.2841C11.1578 26.9528 11.1966 26.6248 11.1895 26.2849C11.1827 25.9433 11.2756 25.5996 11.3264 25.2567C11.3678 24.9766 11.4087 24.6965 11.4566 24.4173C11.472 24.3274 11.5184 24.2428 11.5344 24.1525C11.606 23.7455 11.6474 23.3311 11.7515 22.933C11.7959 22.7641 11.863 22.6058 11.8494 22.4275C11.8488 22.418 11.8521 22.4077 11.8556 22.3988C12.0485 21.9323 12.063 21.4117 12.2712 20.9559C12.3487 20.7864 12.3395 20.5933 12.4374 20.4528C12.543 20.3013 12.5211 20.1295 12.5856 19.9753C12.6563 19.8056 12.6794 19.6148 12.759 19.4503C12.9279 19.1007 13.0148 18.7209 13.195 18.3721C13.2914 18.1852 13.3568 17.9645 13.4461 17.7622C13.5227 17.5892 13.581 17.4084 13.6552 17.2345C13.6934 17.1452 13.7374 17.0529 13.8002 16.9807C13.9134 16.8506 13.9915 16.7145 14.0066 16.5373C14.0137 16.453 14.0451 16.3525 14.1013 16.2936C14.3349 16.049 14.3805 15.702 14.5745 15.4432C14.7547 15.203 14.8594 14.9188 15.0798 14.6984C15.2489 14.5292 15.3551 14.2926 15.4705 14.0757C15.5625 13.9027 15.637 13.7261 15.8228 13.6258C15.8689 13.601 15.9157 13.5409 15.9248 13.4904C15.9627 13.2836 16.1011 13.1419 16.2277 12.9931C16.6448 12.503 17.0574 12.0087 17.4872 11.5298C17.6697 11.3266 17.8842 11.1503 18.0942 10.9738C18.6938 10.4703 19.3132 9.98965 19.9867 9.59003C20.4049 9.34186 20.8454 9.12504 21.2923 8.93278C21.61 8.79612 21.9605 8.73755 22.2871 8.61805C22.6118 8.49914 22.9428 8.41928 23.2848 8.39295C23.8196 8.35154 24.3538 8.25275 24.8912 8.3122C25.3006 8.35746 25.7058 8.43999 26.1126 8.50802C26.2463 8.5302 26.3788 8.5586 26.5142 8.58433C26.7089 8.18087 27.0485 7.95133 27.3851 7.73688C27.843 7.44523 28.3458 7.23847 28.8844 7.14175C29.405 7.04828 29.9271 6.9696 30.4616 7.0116C31.4235 7.08762 32.3251 7.32189 33.0823 7.95843C33.1456 8.01168 33.1983 8.07734 33.2956 8.1788C33.1933 8.1788 33.1539 8.18767 33.1199 8.17732C32.6685 8.04096 32.2257 7.85875 31.7652 7.77327C30.9934 7.6301 30.2167 7.52835 29.4207 7.63454C28.9519 7.69695 28.5292 7.86467 28.0994 8.02972C28.0225 8.0593 27.9554 8.11491 27.8234 8.19507C27.9341 8.21991 27.9761 8.24062 28.0157 8.23678C29.0267 8.13828 30.0324 8.16638 31.0281 8.37521C31.3348 8.43969 31.6294 8.56037 31.9356 8.62693C32.371 8.72158 32.7821 8.87806 33.177 9.07565C33.7121 9.34334 34.2569 9.59861 34.7651 9.91185C35.2206 10.1926 35.6478 10.5259 36.058 10.8711C36.4467 11.1986 36.7883 11.5813 37.167 11.9218C37.5932 12.3051 37.9638 12.7361 38.3111 13.1887C38.8139 13.8444 39.2973 14.5129 39.7265 15.2216C40.2 16.0037 40.6094 16.818 41.0155 17.6347C41.1818 17.9687 41.3261 18.3148 41.4613 18.6629C41.7384 19.3767 42.028 20.0869 42.265 20.8139C42.5294 21.6259 42.7501 22.4526 42.9725 23.2779C43.1157 23.8091 43.2417 24.346 43.3496 24.8855C43.4748 25.5105 43.5733 26.1406 43.6797 26.7691C43.7732 27.3205 43.8735 27.8713 43.948 28.4253C44.0096 28.8832 44.0439 29.3452 44.0791 29.806C44.1444 30.6579 44.2128 31.5101 44.2583 32.3632C44.2864 32.8912 44.2758 33.4215 44.2808 33.9507C44.2861 34.5003 44.2985 35.0499 44.2906 35.5992C44.284 36.0399 44.2557 36.4806 44.2287 36.9208C44.185 37.6369 44.1453 38.3533 44.0835 39.0679C44.0202 39.8024 43.9421 40.536 43.8525 41.2675C43.7664 41.9697 43.6703 42.6716 43.5546 43.3694C43.4345 44.0947 43.2834 44.8146 43.1512 45.5381C43.1213 45.7017 43.1083 45.8688 43.0964 46.0351C43.0802 46.2604 43.0083 46.4572 42.8394 46.6136C42.8045 46.6459 42.753 46.6849 42.7507 46.7234C42.7376 46.942 42.5794 46.9721 42.4191 46.9757C42.0257 46.984 41.6323 46.9795 41.2389 46.9783C40.8369 46.9772 40.4346 46.9819 40.0329 46.9692C39.7581 46.9603 39.4821 46.9402 39.2106 46.8991C38.9627 46.8618 38.9323 46.8127 38.9645 46.5607C39.0183 46.1407 39.1056 45.7239 39.1414 45.3027C39.2032 44.5774 39.2384 43.8497 39.2804 43.1227C39.2863 43.0188 39.2677 42.9135 39.2079 42.8044C39.1917 42.8523 39.1704 42.8991 39.1603 42.9484C39.0331 43.5749 38.9278 44.2065 38.7755 44.8267C38.635 45.3994 38.4436 45.9596 38.2771 46.5261C38.2428 46.6423 38.1842 46.7166 38.0514 46.7142C37.4027 46.703 36.7543 46.6944 36.1057 46.6831C36.0894 46.6831 36.0734 46.6651 36.0379 46.6438C36.4488 45.2314 36.6221 43.7858 36.5115 42.2501C36.3331 42.5385 36.2932 42.8159 36.2314 43.0795C36.0193 43.982 35.7602 44.8652 35.3339 45.6946C35.1819 45.9907 35.0698 46.3075 34.9248 46.6491C34.7974 46.6684 34.6548 46.7095 34.5131 46.7074C33.9236 46.6982 33.3344 46.6681 32.7451 46.6624C32.4881 46.6601 32.2411 46.6645 32.011 46.5169C31.9497 46.4776 31.8418 46.511 31.7412 46.511C31.6557 46.2986 31.7128 46.0948 31.7637 45.9037C31.8598 45.5437 31.9971 45.1947 32.0944 44.835C32.1814 44.5138 32.245 44.1858 32.3056 43.8583C32.4088 43.2999 32.5194 42.7417 32.5949 42.1791C32.6946 41.4343 32.83 40.6927 32.843 39.9382C32.8436 39.9109 32.8262 39.8837 32.8081 39.829C32.7253 39.8681 32.6466 39.8985 32.5748 39.9408C32.3298 40.0849 32.0728 40.2144 31.8501 40.3878C31.7317 40.4798 31.5578 40.3854 31.4635 40.5715C31.4111 40.6747 31.2144 40.7099 31.0783 40.7643C30.934 40.822 30.776 40.8501 30.6382 40.919C30.0638 41.2065 29.4527 41.3633 28.8253 41.4852C27.4868 41.7449 26.1546 41.7514 24.833 41.4038C24.3792 41.2843 23.9408 41.1074 23.4951 40.9578C23.393 40.9235 23.2895 40.893 23.1718 40.8563C23.1673 40.9081 23.1588 40.9453 23.1617 40.9814C23.1963 41.3828 23.2457 41.7836 23.2661 42.1856C23.2936 42.7325 23.3111 43.2806 23.3093 43.8281C23.3081 44.1304 23.2561 44.4322 23.2312 44.7345C23.2031 45.0758 23.1845 45.418 23.1523 45.7588C23.1339 45.9525 23.0928 46.1439 23.0691 46.3374C23.0277 46.6793 22.8065 46.8653 22.4628 46.884C21.983 46.91 21.5047 46.9627 21.0252 46.9967C20.8791 47.007 20.7312 46.9899 20.5842 46.9896C19.8864 46.9887 19.1886 46.9893 18.4725 46.9893C18.6553 46.2545 18.8493 45.5491 19.0038 44.835C19.159 44.1168 19.1839 43.3818 19.2416 42.6518C19.2223 42.6482 19.2028 42.645 19.1836 42.6414C19.1366 42.857 19.0943 43.0736 19.0416 43.2877C18.9195 43.7844 18.823 44.2902 18.6586 44.7726C18.5009 45.2355 18.272 45.6745 18.0723 46.1232C17.9844 46.3205 17.8939 46.5169 17.8016 46.7121C17.7076 46.9115 17.5526 46.9979 17.3275 46.9922C16.8702 46.981 16.4126 46.9875 15.955 46.9816C15.8521 46.9801 15.7494 46.9576 15.619 46.9414L15.6178 46.9423ZM20.3428 16.7314C20.2206 16.7133 20.1973 16.8065 20.1671 16.8896C20.1269 17.0008 20.089 17.1127 20.0509 17.2245C19.8364 17.8569 19.59 18.481 19.4164 19.1243C19.222 19.8446 19.0922 20.5823 18.9378 21.3132C18.9067 21.4602 18.8914 21.6105 18.8621 21.8028C18.9993 21.7439 19.0889 21.7096 19.175 21.6676C19.3827 21.5658 19.5805 21.4389 19.7965 21.3605C20.4786 21.1124 21.1938 21.1491 21.8892 21.2316C22.5917 21.315 23.2809 21.5111 23.9763 21.656C24.197 21.7019 24.4248 21.7282 24.6114 21.9288C24.5857 21.9844 24.5715 22.0867 24.5212 22.1092C24.4183 22.1548 24.2946 22.1805 24.1825 22.1719C24.0376 22.1613 23.8959 22.1086 23.7524 22.0752C23.3043 21.9714 22.8588 21.8554 22.4074 21.7682C21.8691 21.664 21.3222 21.6291 20.7741 21.6566C20.3813 21.6762 19.9893 21.7247 19.6299 21.8945C19.3901 22.0077 19.1463 22.1269 18.9103 22.371C19.1549 22.3148 19.3347 22.2716 19.5158 22.2325C19.7273 22.187 19.9391 22.1119 20.152 22.1068C21.4367 22.0775 22.6802 22.2565 23.8033 22.9345C24.2431 23.1998 24.6268 23.5382 24.9031 23.9807C24.9708 24.0889 25.0373 24.1579 25.1841 24.1395C25.2577 24.1304 25.3645 24.173 25.4142 24.2295C25.4979 24.3247 25.5896 24.333 25.7017 24.3395C25.9857 24.3566 26.2699 24.3779 26.5515 24.4164C26.7944 24.4495 26.7825 24.4531 26.9355 24.2567C27.1706 23.9547 27.3907 23.6305 27.672 23.3767C28.1677 22.9297 28.73 22.5751 29.3766 22.3686C29.8677 22.2118 30.361 22.0852 30.881 22.0891C31.2733 22.092 31.6658 22.0897 32.0994 22.0897C32.0305 21.877 31.9725 21.7028 31.9178 21.5274C31.8276 21.2402 31.8282 21.2351 31.5297 21.2603C30.75 21.3259 30.0043 21.5303 29.2917 21.8471C28.8714 22.0341 28.4647 22.2521 28.0482 22.4476C27.9344 22.5008 27.8083 22.5449 27.6844 22.5558C27.4939 22.5724 27.4312 22.4387 27.4856 22.2497C27.5475 22.0347 27.7013 21.9285 27.882 21.8445C28.1044 21.7409 28.3337 21.6519 28.5564 21.5484C28.7682 21.4502 28.9673 21.3191 29.1856 21.2419C29.7485 21.0438 30.3214 20.8763 30.9165 20.8003C31.0319 20.7855 31.1446 20.7512 31.2597 20.737C31.378 20.7225 31.4978 20.7213 31.6454 20.7125C31.2005 18.7599 30.4737 16.9828 29.3565 15.3725C29.3287 15.3323 29.277 15.3089 29.2163 15.2619C29.2163 15.324 29.2083 15.3545 29.2175 15.3778C29.3394 15.6893 29.474 15.996 29.5852 16.3111C29.7878 16.8861 30.0093 17.4575 30.1626 18.0462C30.3255 18.6724 30.4202 19.3169 30.5409 19.954C30.5634 20.0735 30.5237 20.1652 30.3891 20.1984C30.1043 20.2685 29.8245 20.3708 29.5361 20.4119C28.8489 20.5098 28.1583 20.5856 27.4676 20.6577C27.2552 20.6799 27.0384 20.6613 26.8077 20.6613C26.7748 20.5873 26.7322 20.5098 26.7053 20.4273C26.5409 19.9224 26.3885 19.4181 26.3072 18.8874C26.177 18.0406 26.0605 17.1949 26.0327 16.338C26.03 16.2513 26.0022 16.1658 25.9863 16.0794C25.8954 16.5953 25.8452 17.1047 25.825 17.6149C25.8049 18.1243 25.7984 18.6357 25.8174 19.1451C25.836 19.6491 25.8934 20.1516 25.9333 20.6495C25.8691 20.6693 25.8416 20.6847 25.8138 20.685C25.3018 20.6929 24.7898 20.6989 24.278 20.706C24.0929 20.7086 23.9077 20.7154 23.7225 20.716C23.5676 20.7163 23.4898 20.6359 23.4832 20.4794C23.4652 20.0375 23.4167 19.5947 23.4309 19.1539C23.4525 18.4893 23.5096 17.8252 23.5673 17.1621C23.5918 16.8822 23.6545 16.6057 23.7033 16.3282C23.7444 16.0954 23.7903 15.8635 23.8341 15.631C23.8142 15.626 23.7941 15.621 23.7743 15.6162C22.9144 17.1816 22.3376 18.8401 22.1791 20.6583C21.7996 20.6527 21.4387 20.6749 21.085 20.6344C20.7575 20.5968 20.4313 20.5128 20.1168 20.411C19.8125 20.3125 19.6779 20.1102 19.7125 19.8056C19.771 19.2894 19.8408 18.7726 19.9453 18.2642C20.0517 17.7465 20.2056 17.239 20.3366 16.7246L20.4191 16.4749C20.2774 16.5406 20.2878 16.6326 20.3443 16.7317L20.3428 16.7314ZM34.6157 24.1153C34.6713 23.8047 34.608 23.674 34.2972 23.5444C33.8996 23.3787 33.5021 23.2045 33.0897 23.085C32.3671 22.8756 31.6264 22.7919 30.8719 22.8792C30.3214 22.9427 29.7857 23.0744 29.2773 23.2859C28.9087 23.4391 28.5493 23.6296 28.2159 23.8494C27.8412 24.0963 27.5856 24.4652 27.3718 24.8589C27.1458 25.2754 27.1274 25.2893 26.6784 25.1565C26.3439 25.0577 26.004 25.0222 25.6591 25.0169C25.3571 25.0121 25.3278 25.0405 25.274 25.3375C25.1335 26.1116 24.9888 26.8851 24.8525 27.6598C24.7336 28.3345 24.6188 29.0101 24.512 29.6868C24.4369 30.1637 24.3943 30.6434 24.4289 31.1282C24.4635 31.6116 24.562 31.6832 24.9835 31.4498C25.3879 31.2259 25.7742 30.9688 26.1643 30.7198C26.3468 30.6032 26.5142 30.4633 26.6976 30.3488C26.8982 30.2234 27.0771 30.2879 27.1745 30.5032C27.2777 30.7313 27.1727 31.0463 26.9482 31.1983C26.6905 31.3729 26.4418 31.5607 26.1785 31.726C25.7304 32.0073 25.2764 32.2875 24.7416 32.3706C24.1733 32.4587 23.9009 32.2949 23.761 31.7397C23.7113 31.5427 23.7027 31.3288 23.711 31.1244C23.7471 30.2299 23.837 29.3402 23.9716 28.4549C23.9808 28.3936 23.9728 28.33 23.9728 28.2306C23.7586 28.4824 23.5729 28.7042 23.3836 28.9228C23.1682 29.1719 22.9047 29.3683 22.603 29.4866C21.9499 29.7427 21.2681 29.8066 20.5738 29.7013C19.8497 29.5916 19.228 29.2579 18.6577 28.8128C18.6112 28.7767 18.5453 28.7657 18.4971 28.7462C18.4971 29.2301 18.4784 29.6922 18.5021 30.1524C18.5287 30.6718 18.5879 31.1901 18.6432 31.708C18.7097 32.3324 18.7724 32.958 18.8662 33.5789C18.9079 33.8546 18.9177 34.0995 18.7115 34.3249H17.7753C17.7872 34.4296 17.7738 34.5172 17.8079 34.5793C18.0096 34.9487 18.2036 35.3241 18.4358 35.674C18.6787 36.0399 18.947 36.3916 19.23 36.7276C19.6033 37.171 19.9896 37.6052 20.3937 38.0208C20.6389 38.2734 20.9226 38.4905 21.1988 38.7109C21.4736 38.9301 21.7505 39.1499 22.0463 39.3389C22.3078 39.5063 22.5908 39.6435 22.8739 39.7728C23.3206 39.9769 23.7657 40.1925 24.2298 40.3481C24.6274 40.4815 25.0486 40.549 25.463 40.6253C26.1803 40.7572 26.9044 40.8025 27.6315 40.7217C27.9817 40.6827 28.3278 40.599 28.6786 40.575C29.0388 40.5507 29.3542 40.3869 29.694 40.3032C29.8895 40.255 30.075 40.1609 30.2599 40.0769C30.4835 39.9751 30.6997 39.858 30.9228 39.7548C31.4374 39.5167 32.4201 38.8842 32.8682 38.463C33.2755 38.0803 33.6787 37.6937 34.0806 37.3056C34.2469 37.145 34.4238 36.9903 34.5616 36.8072C34.8006 36.4895 35.0139 36.1526 35.236 35.8225C35.3833 35.6036 35.5357 35.3877 35.6711 35.1617C35.8956 34.7869 36.1204 34.411 36.3198 34.0223C36.387 33.8913 36.4778 33.7324 36.3946 33.5606C36.0252 33.6815 35.2416 33.7259 35.0508 33.6425C35.0588 32.4226 35.1334 31.2019 34.9278 29.9886C34.8882 30.0317 34.874 30.0761 34.8716 30.1214C34.8426 30.6707 34.8308 31.2214 34.7837 31.7689C34.7367 32.3167 34.6622 32.8628 34.5847 33.4073C34.5495 33.6543 34.4371 33.757 34.1969 33.7756C33.8937 33.799 33.5884 33.8084 33.2841 33.804C33.0723 33.801 33.0294 33.7469 33.0424 33.5274C33.0661 33.126 33.098 32.7249 33.1338 32.3244C33.2217 31.3406 33.1542 30.3568 33.1374 29.373C33.1365 29.3292 33.1122 29.2857 33.0903 29.2139C32.8463 29.3212 32.6262 29.4268 32.3997 29.5162C31.8885 29.7176 31.3531 29.7626 30.808 29.7747C30.0851 29.791 29.4278 29.588 28.8185 29.223C28.3505 28.9426 27.9527 28.5761 27.6321 28.1298C27.2215 27.558 26.9641 26.9289 26.9168 26.2222C26.9029 26.0134 26.9473 25.9554 27.1115 25.9291C27.2611 25.9051 27.3268 25.9474 27.383 26.129C27.4404 26.3145 27.4803 26.5053 27.5362 26.691C27.7181 27.2959 28.0456 27.8062 28.5366 28.2079C28.6129 28.2703 28.688 28.3339 28.7652 28.3945C29.1601 28.7045 29.6124 28.9329 30.0978 28.9935C31.01 29.1077 31.8989 29.0086 32.6996 28.4759C33.2296 28.1233 33.5858 27.6305 33.81 27.0643C33.9881 26.6138 34.0827 26.1231 34.0963 25.6271C34.1064 25.2541 34.1295 24.8814 34.146 24.5084C34.1546 24.3176 34.22 24.1502 34.3338 23.9955C34.4377 24.0398 34.5258 24.0774 34.6154 24.1159L34.6157 24.1153ZM17.5822 23.8934C17.5041 23.9493 17.3917 23.9866 17.3704 24.0529C17.2683 24.37 17.0778 24.6879 17.313 25.029C17.3503 25.0828 17.3665 25.1538 17.3819 25.2195C17.4683 25.5919 17.5342 25.9702 17.6398 26.3367C17.7679 26.7816 17.9655 27.1966 18.2507 27.5687C18.558 27.9692 18.9055 28.315 19.3336 28.5942C19.7483 28.8645 20.1911 29.0367 20.6729 29.084C20.9909 29.1154 21.3183 29.0879 21.6381 29.0544C22.0847 29.0077 22.4965 28.8492 22.8656 28.5877C23.2617 28.307 23.4903 27.8905 23.7592 27.5039C24.0305 27.1137 24.0651 26.5807 24.4972 26.2899C24.6312 25.9335 24.6919 25.5614 24.62 25.1905C24.5806 24.987 24.4748 24.7823 24.352 24.6122C24.1923 24.391 23.9935 24.1954 23.7974 24.0038C23.659 23.8683 23.5099 23.7337 23.3425 23.6393C22.8517 23.3628 22.3379 23.1377 21.7756 23.043C21.6023 23.0137 21.4322 22.933 21.2604 22.9333C20.8421 22.9336 20.4268 22.8966 20.0029 22.9688C19.4664 23.0599 18.9523 23.1954 18.4524 23.4051C18.2527 23.4888 18.1276 23.6044 18.1048 23.8322C18.0877 24.0052 17.993 24.1407 17.7925 24.2138C17.7262 24.1129 17.6644 24.0188 17.5822 23.8934Z" fill="#003B60"/>
<path d="M34.6156 24.1153C34.526 24.0769 34.4378 24.0393 34.334 23.995C34.2201 24.1497 34.1548 24.3171 34.1462 24.5079C34.1296 24.8809 34.1065 25.2536 34.0965 25.6265C34.0832 26.1229 33.9885 26.6133 33.8102 27.0638C33.5862 27.6303 33.2301 28.1228 32.6998 28.4753C31.8987 29.0081 31.0102 29.1072 30.0979 28.993C29.6126 28.9323 29.1603 28.704 28.7654 28.394C28.6879 28.3334 28.6128 28.2695 28.5368 28.2073C28.0457 27.8057 27.7183 27.2954 27.5364 26.6905C27.4805 26.5048 27.4405 26.314 27.3832 26.1285C27.327 25.9469 27.261 25.9046 27.1116 25.9286C26.9475 25.9549 26.9031 26.0129 26.917 26.2217C26.9643 26.9286 27.2214 27.5575 27.6322 28.1293C27.9529 28.5756 28.3507 28.9418 28.8186 29.2225C29.4277 29.5875 30.0852 29.7907 30.8082 29.7742C31.3533 29.7617 31.8887 29.7168 32.3998 29.5156C32.6264 29.4263 32.8468 29.3207 33.0905 29.2133C33.1124 29.2849 33.1366 29.3284 33.1375 29.3725C33.1547 30.3563 33.2221 31.3401 33.134 32.3239C33.0982 32.7244 33.0662 33.1255 33.0426 33.5269C33.0296 33.7464 33.0725 33.8002 33.2842 33.8035C33.5883 33.8079 33.8936 33.7984 34.1971 33.7751C34.4372 33.7564 34.5496 33.6538 34.5848 33.4068C34.6626 32.8623 34.7369 32.3162 34.7839 31.7684C34.8309 31.2209 34.8431 30.6701 34.8718 30.1208C34.8741 30.0759 34.8883 30.0315 34.928 29.988C35.1338 31.2014 35.059 32.4221 35.051 33.642C35.2418 33.7254 36.0254 33.681 36.3948 33.56C36.4779 33.7319 36.3874 33.8907 36.32 34.0218C36.1206 34.4101 35.8958 34.7861 35.6713 35.1612C35.5358 35.3871 35.3835 35.6031 35.2362 35.822C35.014 36.1521 34.8008 36.4893 34.5618 36.8067C34.4239 36.9898 34.247 37.1445 34.0808 37.3051C33.6791 37.6935 33.2757 38.0801 32.8684 38.4625C32.4202 38.8837 31.4373 39.5161 30.9229 39.7542C30.6999 39.8575 30.4837 39.9746 30.26 40.0764C30.0752 40.1607 29.8897 40.2547 29.6942 40.3026C29.354 40.3864 29.0387 40.5502 28.6787 40.5745C28.3279 40.5981 27.9818 40.6821 27.6316 40.7212C26.9049 40.8022 26.1808 40.7567 25.4632 40.6248C25.0488 40.5485 24.6275 40.481 24.23 40.3476C23.7659 40.192 23.3207 39.9764 22.8741 39.7723C22.591 39.643 22.3079 39.5058 22.0464 39.3384C21.7509 39.1493 21.4741 38.9296 21.199 38.7104C20.9227 38.49 20.6391 38.2729 20.3938 38.0203C19.9901 37.6047 19.6035 37.1705 19.2302 36.7271C18.9471 36.3908 18.6788 36.0394 18.436 35.6735C18.2038 35.3236 18.0098 34.9479 17.808 34.5787C17.7743 34.5166 17.7873 34.4291 17.7755 34.3244H18.7117C18.9178 34.0993 18.9081 33.854 18.8664 33.5784C18.7726 32.9578 18.7099 32.3322 18.6433 31.7075C18.5883 31.1898 18.5289 30.6716 18.5022 30.1519C18.4786 29.6919 18.4972 29.2296 18.4972 28.7457C18.5454 28.7649 18.6114 28.7759 18.6578 28.8122C19.2281 29.2574 19.8499 29.5911 20.574 29.7008C21.2682 29.8061 21.95 29.7422 22.6031 29.4861C22.9048 29.3677 23.1681 29.1716 23.3837 28.9223C23.5727 28.7037 23.7588 28.4818 23.9729 28.2301C23.9729 28.3292 23.9809 28.3931 23.9718 28.4543C23.8372 29.3396 23.7473 30.2294 23.7112 31.1239C23.7029 31.3286 23.7112 31.5421 23.7612 31.7391C23.9011 32.2943 24.1738 32.4582 24.7417 32.3701C25.2765 32.2869 25.7303 32.0065 26.1787 31.7255C26.4419 31.5605 26.691 31.3723 26.9483 31.1978C27.1731 31.0455 27.2779 30.7305 27.1746 30.5027C27.077 30.2874 26.8981 30.2229 26.6978 30.3483C26.5144 30.4631 26.347 30.603 26.1645 30.7192C25.7743 30.9683 25.388 31.2253 24.9837 31.4492C24.5619 31.6826 24.4637 31.611 24.4291 31.1277C24.3942 30.6429 24.4368 30.1631 24.5122 29.6863C24.619 29.0095 24.734 28.3339 24.8526 27.6592C24.989 26.8843 25.1336 26.1111 25.2741 25.337C25.328 25.04 25.3573 25.0119 25.6593 25.0163C26.0042 25.0217 26.3443 25.0569 26.6786 25.1559C27.1276 25.2888 27.1456 25.2751 27.3719 24.8584C27.5855 24.4647 27.8413 24.0958 28.2161 23.8488C28.5495 23.6291 28.9089 23.4389 29.2774 23.2853C29.7859 23.0739 30.3213 22.9422 30.872 22.8786C31.6263 22.7917 32.3673 22.8754 33.0899 23.0845C33.5022 23.204 33.8998 23.3782 34.2973 23.5439C34.6082 23.6734 34.6712 23.8039 34.6159 24.1147L34.6156 24.1153ZM22.843 35.9678C24.9026 37.6872 27.8186 37.5021 29.4049 35.4312C29.0822 35.1748 28.7361 34.9594 28.3537 34.805C27.8839 34.6151 27.4083 34.5356 26.9193 34.7441C26.7661 34.8095 26.5999 34.847 26.4538 34.9242C26.2506 35.0313 26.0734 35.0174 25.8681 34.9171C25.4105 34.6938 24.9316 34.6219 24.4391 34.8118C24.0596 34.958 23.7014 35.1467 23.3929 35.4114C23.2015 35.5756 23.0362 35.7702 22.843 35.9678ZM30.8753 25.0148C30.8564 24.9995 30.8371 24.9841 30.8182 24.9687C30.8558 24.8803 30.9034 24.7945 30.9288 24.7025C30.9818 24.5114 30.8969 24.378 30.7052 24.3301C30.5183 24.2836 30.3574 24.365 30.2361 24.6034C30.0944 24.882 29.8619 25.0773 29.6259 25.2541C29.2325 25.5488 28.7775 25.7008 28.2782 25.7029C28.0537 25.7038 27.8271 25.7067 27.6251 25.8138C27.5671 26.222 27.6257 26.3107 28.0037 26.3551C28.178 26.3755 28.3554 26.3654 28.5311 26.3761C28.6051 26.3805 28.6778 26.4024 28.7408 26.4145C28.8361 26.9206 28.8364 26.9721 29.0517 27.2235C29.2236 27.4241 29.4437 27.5817 29.7362 27.5406C30.3272 27.4572 30.9129 26.697 30.8785 26.2019C30.8611 25.9487 30.9064 25.9025 31.1528 25.8357C31.6875 25.6904 32.1839 25.4553 32.6592 25.1772C32.8098 25.0891 32.9367 24.9578 33.0654 24.8368C33.1411 24.7655 33.1721 24.6697 33.1109 24.5691C33.0083 24.3999 32.8468 24.3478 32.6548 24.4247C32.5039 24.4851 32.3554 24.5516 32.1715 24.63C32.1857 24.5105 32.2123 24.4315 32.1984 24.3603C32.1857 24.294 32.1445 24.2097 32.0901 24.1792C31.86 24.05 31.7556 24.0825 31.5772 24.2777C31.3483 24.528 31.1096 24.7696 30.8753 25.0151V25.0148Z" fill="white"/>
<path d="M20.3371 16.7262C20.204 17.2383 20.0499 17.7461 19.9437 18.2635C19.8393 18.7719 19.7695 19.2887 19.7109 19.8049C19.6763 20.1095 19.8109 20.3118 20.1153 20.4103C20.4297 20.5121 20.756 20.5961 21.0834 20.6337C21.4372 20.6742 21.7981 20.652 22.1776 20.6576C22.3364 18.8394 22.9129 17.1809 23.7728 15.6155C23.7926 15.6206 23.8127 15.6256 23.8325 15.6303C23.7888 15.8628 23.7429 16.0947 23.7018 16.3275C23.653 16.605 23.59 16.8815 23.5657 17.1613C23.5077 17.8242 23.451 18.4883 23.4294 19.1532C23.4152 19.594 23.4637 20.0368 23.4817 20.4787C23.4882 20.6351 23.5657 20.7156 23.721 20.7153C23.9062 20.7147 24.0913 20.7079 24.2765 20.7053C24.7885 20.6982 25.3006 20.6922 25.8123 20.6842C25.8401 20.684 25.8676 20.6683 25.9318 20.6488C25.8918 20.1509 25.8342 19.6484 25.8158 19.1443C25.7972 18.635 25.8037 18.1239 25.8235 17.6142C25.8436 17.1037 25.8939 16.5946 25.9847 16.0787C26.0007 16.1648 26.0282 16.2506 26.0312 16.3373C26.059 17.1942 26.1755 18.0399 26.3057 18.8867C26.387 19.4171 26.5393 19.9217 26.7038 20.4266C26.7307 20.5091 26.7733 20.5866 26.8061 20.6606C27.0369 20.6606 27.2537 20.6792 27.4661 20.657C28.1567 20.5849 28.8471 20.5091 29.5345 20.4112C29.8232 20.3701 30.1031 20.2681 30.3876 20.1977C30.5222 20.1645 30.5621 20.0728 30.5394 19.9533C30.4187 19.3162 30.3243 18.672 30.161 18.0455C30.0078 17.4568 29.7863 16.8854 29.5836 16.3103C29.4727 15.9953 29.3378 15.6886 29.216 15.3771C29.2068 15.3535 29.2148 15.3233 29.2148 15.2612C29.2757 15.3079 29.3272 15.3316 29.355 15.3718C30.4725 16.9821 31.1993 18.7592 31.6438 20.7118C31.4962 20.7203 31.3764 20.7215 31.2581 20.7363C31.1428 20.7505 31.0301 20.7848 30.915 20.7996C30.3196 20.8756 29.7469 21.043 29.184 21.2412C28.9654 21.3181 28.7664 21.4492 28.5549 21.5477C28.3321 21.6509 28.1032 21.7402 27.8805 21.8438C27.6997 21.9278 27.5456 22.034 27.4841 22.249C27.43 22.438 27.4924 22.572 27.6829 22.5551C27.8065 22.5442 27.9328 22.5004 28.0467 22.4469C28.4635 22.2514 28.8699 22.0334 29.2902 21.8464C30.0031 21.5296 30.7485 21.3252 31.5282 21.2596C31.8266 21.2344 31.8261 21.2398 31.9163 21.5267C31.9713 21.7018 32.0293 21.8763 32.0979 22.089C31.6643 22.089 31.2717 22.0913 30.8795 22.0884C30.3595 22.0845 29.8661 22.2111 29.3751 22.3679C28.7285 22.5744 28.1659 22.929 27.6705 23.376C27.3892 23.6298 27.1691 23.9537 26.9339 24.256C26.781 24.4524 26.7928 24.4488 26.55 24.4157C26.2684 24.3772 25.9838 24.3559 25.7002 24.3388C25.5881 24.332 25.4964 24.324 25.4127 24.2287C25.363 24.1722 25.2565 24.1297 25.1825 24.1388C25.0358 24.1572 24.969 24.0885 24.9015 23.98C24.6253 23.5375 24.2419 23.1991 23.8018 22.9338C22.6786 22.2561 21.4351 22.0768 20.1505 22.1061C19.9375 22.1109 19.726 22.1863 19.5142 22.2318C19.3335 22.2709 19.1537 22.3141 18.9087 22.3703C19.1448 22.1262 19.3885 22.0073 19.6284 21.8938C19.9878 21.724 20.38 21.6757 20.7725 21.6559C21.3207 21.6284 21.8676 21.6633 22.4059 21.7674C22.8573 21.8547 23.3028 21.9707 23.7509 22.0745C23.8944 22.1076 24.036 22.1603 24.181 22.1712C24.2931 22.1795 24.4167 22.154 24.5197 22.1085C24.5696 22.0863 24.5841 21.9837 24.6099 21.9281C24.4232 21.7275 24.1958 21.7015 23.9748 21.6553C23.2794 21.5104 22.5902 21.3143 21.8877 21.2309C21.1923 21.1484 20.477 21.1117 19.7949 21.3598C19.579 21.4382 19.3811 21.5651 19.1735 21.6669C19.0877 21.7089 18.9978 21.7432 18.8605 21.8021C18.8898 21.6098 18.9052 21.4595 18.9363 21.3125C19.0907 20.5816 19.2205 19.8439 19.4149 19.1236C19.5885 18.48 19.8349 17.8562 20.0493 17.2238C20.0872 17.112 20.1253 16.9998 20.1656 16.8889C20.1957 16.8058 20.2191 16.7126 20.3413 16.7307L20.336 16.7256L20.3371 16.7262Z" fill="white"/>
<path d="M17.5823 23.8934C17.6645 24.0188 17.7266 24.1131 17.7926 24.2137C17.9931 24.1404 18.0878 24.0052 18.105 23.8321C18.1277 23.6044 18.2528 23.4887 18.4525 23.405C18.9524 23.1953 19.4665 23.0598 20.0031 22.9687C20.4272 22.8965 20.8422 22.9335 21.2605 22.9332C21.432 22.9332 21.6024 23.0137 21.7758 23.043C22.3381 23.1376 22.8516 23.3627 23.3426 23.6393C23.51 23.7336 23.6591 23.8682 23.7975 24.0037C23.9936 24.1957 24.1924 24.3909 24.3521 24.6121C24.4749 24.7825 24.5808 24.9869 24.6201 25.1904C24.6917 25.5613 24.631 25.9338 24.4973 26.2899C24.0652 26.5807 24.0306 27.1137 23.7593 27.5038C23.4908 27.8904 23.2618 28.3069 22.8658 28.5876C22.4966 28.8491 22.0849 29.0076 21.6382 29.0544C21.3185 29.0878 20.991 29.1153 20.673 29.084C20.1912 29.0366 19.7484 28.8645 19.3337 28.5941C18.9057 28.3149 18.5581 27.9691 18.2508 27.5686C17.9653 27.1965 17.768 26.7812 17.64 26.3366C17.5344 25.9698 17.4684 25.5918 17.382 25.2194C17.3669 25.1537 17.3504 25.0828 17.3131 25.0289C17.078 24.6879 17.2687 24.3699 17.3705 24.0528C17.3918 23.9865 17.5042 23.9493 17.5823 23.8934ZM20.9316 26.2946C20.9523 26.3854 20.9679 26.4325 20.973 26.481C21.0156 26.896 21.2028 27.2305 21.5465 27.4648C21.7695 27.6168 22.0165 27.6946 22.2922 27.6065C22.5093 27.537 22.6788 27.4036 22.7847 27.208C22.9146 26.9684 23.0213 26.7161 23.1589 26.4251C23.1207 26.4514 23.1281 26.4425 23.1367 26.441C23.3775 26.3952 23.618 26.3479 23.8593 26.3056C24.0708 26.2683 24.2545 26.1804 24.3805 26.0036C24.4956 25.8421 24.4737 25.7444 24.2876 25.6942C24.1122 25.6465 23.9217 25.6249 23.7401 25.6344C23.2319 25.6607 22.7273 25.6397 22.273 25.4001C21.8133 25.1579 21.3764 24.871 20.9372 24.5917C20.776 24.4894 20.6165 24.4086 20.437 24.4042C20.2743 24.5477 20.2474 24.7195 20.3089 24.9603C20.1098 24.8334 19.9619 24.739 19.8138 24.6453C19.6892 24.5663 19.5694 24.477 19.4378 24.4125C19.2565 24.3237 19.1677 24.3631 19.0962 24.5521C19.0633 24.6382 19.0518 24.7322 19.0266 24.8393C18.9178 24.8065 18.8249 24.7793 18.7323 24.7503C18.533 24.6879 18.4093 24.7284 18.3073 24.8908C18.2449 24.9899 18.2845 25.1756 18.4096 25.2886C18.5232 25.391 18.6477 25.4821 18.7734 25.5693C19.2148 25.8758 19.7067 26.063 20.2305 26.1695C20.4604 26.2162 20.6923 26.2523 20.9316 26.2949V26.2946Z" fill="white"/>
<path d="M20.3429 16.7312C20.2864 16.6321 20.2761 16.5402 20.4178 16.4745C20.3903 16.5576 20.3628 16.641 20.3364 16.7253C20.3376 16.7265 20.3429 16.7312 20.3429 16.7312Z" fill="white"/>
<path d="M22.8433 35.9678C23.0365 35.7705 23.2018 35.5759 23.3932 35.4114C23.702 35.1467 24.0599 34.9579 24.4394 34.8118C24.9319 34.6219 25.4108 34.6941 25.8684 34.9171C26.0737 35.0174 26.2509 35.0313 26.4541 34.9242C26.6002 34.847 26.7664 34.8095 26.9197 34.7441C27.4083 34.5355 27.8842 34.6151 28.354 34.805C28.7364 34.9597 29.0828 35.1751 29.4052 35.4312C27.8189 37.5021 24.9029 37.6869 22.8433 35.9678Z" fill="#003B60"/>
<path d="M30.8755 25.0148C31.11 24.7693 31.3484 24.528 31.5774 24.2774C31.7557 24.0825 31.8602 24.05 32.0903 24.1789C32.1447 24.2094 32.1855 24.2937 32.1985 24.36C32.2124 24.4312 32.1858 24.5102 32.1716 24.6297C32.3556 24.5513 32.5041 24.4848 32.6549 24.4244C32.8469 24.3475 33.0084 24.3996 33.1111 24.5688C33.172 24.6694 33.1409 24.7652 33.0655 24.8365C32.9368 24.9575 32.8099 25.0888 32.6594 25.1769C32.184 25.455 31.6877 25.6904 31.1529 25.8354C30.9065 25.9022 30.8613 25.9484 30.8787 26.2016C30.913 26.6967 30.3273 27.4569 29.7364 27.5403C29.4438 27.5817 29.2237 27.4241 29.0519 27.2232C28.8365 26.9718 28.8363 26.9203 28.741 26.4142C28.678 26.4021 28.6052 26.3802 28.5313 26.3758C28.3556 26.3651 28.1781 26.3752 28.0039 26.3548C27.6259 26.3104 27.5673 26.2217 27.6253 25.8135C27.8273 25.7064 28.0539 25.7034 28.2784 25.7026C28.7777 25.7005 29.2326 25.5485 29.626 25.2538C29.8624 25.077 30.0946 24.8814 30.2362 24.6031C30.3578 24.3644 30.5187 24.283 30.7054 24.3298C30.897 24.3774 30.9819 24.5111 30.929 24.7022C30.9036 24.7942 30.8559 24.88 30.8184 24.9684C30.8373 24.9838 30.8565 24.9992 30.8755 25.0145V25.0148Z" fill="#003B60"/>
<path d="M20.9312 26.2946C20.6919 26.252 20.46 26.2159 20.2302 26.1692C19.7066 26.0627 19.2144 25.8758 18.7731 25.569C18.6474 25.4818 18.5226 25.3907 18.4093 25.2883C18.2839 25.1753 18.2445 24.9896 18.307 24.8905C18.409 24.7281 18.5326 24.6876 18.732 24.75C18.8246 24.779 18.9175 24.8062 19.0263 24.839C19.0515 24.7319 19.0633 24.6379 19.0958 24.5518C19.1677 24.3631 19.2562 24.3234 19.4375 24.4122C19.5691 24.4767 19.6889 24.566 19.8134 24.645C19.9616 24.7387 20.1095 24.8331 20.3086 24.96C20.2471 24.7192 20.274 24.5474 20.4367 24.4039C20.6162 24.4083 20.7756 24.4891 20.9369 24.5914C21.3761 24.8707 21.813 25.1576 22.2727 25.3998C22.727 25.6391 23.2316 25.6604 23.7398 25.6341C23.9214 25.6246 24.1116 25.6462 24.2873 25.6939C24.4734 25.7441 24.495 25.8418 24.3802 26.0033C24.2545 26.1801 24.0708 26.268 23.859 26.3053C23.6176 26.3476 23.3771 26.3949 23.1364 26.4407C23.1278 26.4425 23.1204 26.4514 23.1586 26.4248C23.021 26.7158 22.9142 26.9681 22.7844 27.2077C22.6785 27.4033 22.509 27.5364 22.2919 27.6062C22.0162 27.6946 21.7692 27.6168 21.5462 27.4645C21.2025 27.2299 21.0152 26.8957 20.9726 26.4807C20.9676 26.4325 20.9519 26.3854 20.9312 26.2943V26.2946Z" fill="#003B60"/>
</svg>
